<svg viewBox="0 0 32 32" xmlns="http://www.w3.org/2000/svg" xmlns:xlink="http://www.w3.org/1999/xlink"><style>:root&gt;svg{display:none}:root&gt;svg:target{display:block}</style><svg viewBox="0 0 32 32" id="calling" xmlns="http://www.w3.org/2000/svg"><rect width="32" height="32" rx="16"/><path d="M21.265 16.7c-.155 0-.316-.05-.47-.084a6.64 6.64 0 01-.921-.274 1.405 1.405 0 00-1.742.702l-.155.316a8.558 8.558 0 01-1.869-1.405 8.558 8.558 0 01-1.405-1.869l.295-.196a1.405 1.405 0 00.703-1.742 7.246 7.246 0 01-.274-.92 5.224 5.224 0 01-.085-.479A2.108 2.108 0 0013.235 9h-2.108a2.108 2.108 0 00-2.107 2.396 13.348 13.348 0 0011.605 11.563h.267a2.108 2.108 0 001.926-1.248 2.12 2.12 0 00.182-.866v-2.108a2.107 2.107 0 00-1.735-2.037zm.351 4.215a.702.702 0 01-.508.676c-.1.03-.204.04-.307.026a11.943 11.943 0 01-10.334-10.383.765.765 0 01.176-.576.702.702 0 01.526-.239h2.108a.703.703 0 01.703.555 7.808 7.808 0 00.428 1.658l-.983.457a.703.703 0 00-.345.934 10.18 10.18 0 004.918 4.918c.171.07.363.07.534 0a.702.702 0 00.4-.365l.436-.984c.363.13.734.238 1.11.323.187.042.377.078.569.106a.703.703 0 01.555.702l.014 2.192z"/></svg><svg viewBox="0 0 16 30" id="facebook" xmlns="http://www.w3.org/2000/svg"><path d="M16 0h-4.364C9.708 0 7.858.79 6.494 2.197A7.62 7.62 0 004.364 7.5V12H0v6h4.364v12h5.818V18h4.364L16 12h-5.818V7.5c0-.398.153-.78.426-1.06A1.43 1.43 0 0111.636 6H16V0z"/></svg><svg viewBox="0 0 20 20" id="hero-star" xmlns="http://www.w3.org/2000/svg"><path d="M10 0l3.09 6.26L20 7.27l-5 4.87 1.18 6.88L10 15.77l-6.18 3.25L5 12.14 0 7.27l6.91-1.01L10 0z"/></svg><svg viewBox="0 0 32 32" id="instagram" xmlns="http://www.w3.org/2000/svg"><path d="M23.5 1h-15A7.5 7.5 0 001 8.5v15A7.5 7.5 0 008.5 31h15a7.5 7.5 0 007.5-7.5v-15A7.5 7.5 0 0023.5 1z"/><path d="M22 15.055a6 6 0 11-11.871 1.76 6 6 0 0111.87-1.76zm2.25-7.305h.015"/></svg><svg viewBox="0 0 32 32" id="message" xmlns="http://www.w3.org/2000/svg"><rect width="32" height="32" rx="16"/><path d="M20.9 10h-9.8A2.1 2.1 0 009 12.1v7a2.1 2.1 0 002.1 2.1h9.8a2.1 2.1 0 002.1-2.1v-7a2.1 2.1 0 00-2.1-2.1zm-9.8 1.4h9.8a.7.7 0 01.7.7L16 15.516 10.4 12.1a.7.7 0 01.7-.7zm10.5 7.7a.7.7 0 01-.7.7h-9.8a.7.7 0 01-.7-.7v-5.404l5.236 3.199a.7.7 0 00.7 0l5.264-3.199V19.1z"/></svg><svg viewBox="0 0 24 24" id="search" xmlns="http://www.w3.org/2000/svg"><path fill-rule="evenodd" clip-rule="evenodd" d="M14.965 14.255h.79l4.99 5-1.49 1.49-5-4.99v-.79l-.27-.28a6.471 6.471 0 01-4.23 1.57 6.5 6.5 0 116.5-6.5c0 1.61-.59 3.09-1.57 4.23l.28.27zm-9.71-4.5c0 2.49 2.01 4.5 4.5 4.5s4.5-2.01 4.5-4.5-2.01-4.5-4.5-4.5-4.5 2.01-4.5 4.5z"/></svg><svg viewBox="0 0 32 26" id="twitter" xmlns="http://www.w3.org/2000/svg"><path d="M31 1.013a14.986 14.986 0 01-4.282 2.047 6.13 6.13 0 00-3.127-1.88 6.222 6.222 0 00-3.66.214 6.09 6.09 0 00-2.877 2.233A5.91 5.91 0 0016 7.072V8.41a14.772 14.772 0 01-6.912-1.518 14.46 14.46 0 01-5.36-4.541s-5.455 12.038 6.818 17.388A16.1 16.1 0 011 22.414c12.273 6.687 27.273 0 27.273-15.382a5.896 5.896 0 00-.11-1.11A10.277 10.277 0 0031 1.013z"/></svg></svg>